<svg id="Calque_1" data-name="Calque 1" xmlns="http://www.w3.org/2000/svg" viewBox="0 0 186 50"><defs><style>.cls-1{fill:#5ec1b9;}.cls-2{fill:#ed8b53;}</style></defs><title>freevoicePlan de travail 1</title><path class="cls-1" d="M-.5,26.4s19.4-4.84,29.9,3.48a16,16,0,0,1,3.41,3.68,17.46,17.46,0,0,1,1.67,3.19,22.36,22.36,0,0,1,.75,2.31,30.33,30.33,0,0,1,.41,11.44H-.5Z"/><path class="cls-2" d="M-.5,11.5s49-22,65,8c.39.73.74,1.44,1,2.09.84,1.79,1.33,3.14,1.33,3.16s0,0,0,0h0c1.83,4.85,7.62,8.75,7.62,8.75a26.8,26.8,0,0,0,10,4c9.85,1.81,18.06-2.33,21-4,2.93-1.37,24.88-11.21,46,0a47.91,47.91,0,0,1,18,17H35.5s7-33-36-24Z"/></svg>