<svg id="Calque_2" data-name="Calque 2" xmlns="http://www.w3.org/2000/svg" viewBox="0 0 186 50"><defs><style>.cls-1{fill:#ed8b53;}.cls-2{fill:#5ec1b9;}</style></defs><title>freevoicePlan de travail 1</title><path class="cls-1" d="M186,39s-49,22-65-8c-.39-.73-.74-1.44-1-2.09-.84-1.79-1.33-3.14-1.33-3.16s0,0,0,0h0C116.79,20.9,111,17,111,17a26.8,26.8,0,0,0-10-4c-9.85-1.81-18.06,2.33-21,4-2.93,1.37-24.88,11.21-46,0A47.91,47.91,0,0,1,16,0H150s-7,33,36,24Z"/><path class="cls-2" d="M186.68,24.46S166,29.33,154.9,20.39a16.92,16.92,0,0,1-3.58-3.94,18,18,0,0,1-1.73-3.39,21.29,21.29,0,0,1-.77-2.45,31.82,31.82,0,0,1-.29-12.1L187-1Z"/></svg>