<?xml version="1.0" encoding="utf-8"?>
<!-- Generator: Adobe Illustrator 23.0.6, SVG Export Plug-In . SVG Version: 6.00 Build 0)  -->
<svg version="1.1" id="Calque_1" xmlns="http://www.w3.org/2000/svg" xmlns:xlink="http://www.w3.org/1999/xlink" x="0px" y="0px"
	 viewBox="0 0 30 30" style="enable-background:new 0 0 30 30;" xml:space="preserve">
<style type="text/css">
	.st0{fill:#4267B2;}
</style>
<path class="st0" d="M15,0c8-0.1,15.1,6.5,15,15.2c-0.1,8.5-7.3,15-15.3,14.8C6.8,29.8-0.2,23.2,0,14.7C0.2,6.5,6.9-0.1,15,0z
	 M12.5,15.2c0,3.2,0,6.4,0,9.7c1.4,0,2.7,0.1,4-0.1c0-3.3,0-6.5,0-9.8c0.9,0,1.8,0,2.7,0c0.1-1.1,0.2-2.2,0.3-3.3c-1,0-2,0-3,0
	c0-0.7,0-1.5,0-2.2c0-0.4,0.2-0.6,0.6-0.6c0.7,0,1.4,0,2.1,0c0.1,0,0.1,0,0.2,0c0-1.2,0-2.4,0-3.6c-0.5,0-1,0-1.6,0
	c-0.9,0-1.8,0-2.7,0.2c-0.8,0.2-1.5,0.5-2,1.2c-0.5,0.6-0.7,1.3-0.7,2.1c0,0.9,0,1.8,0,2.8c0,0.1,0,0.1,0,0.2c-0.7,0-1.3,0-2,0
	c0,1.1,0,2.3,0,3.4C11.2,15.1,11.8,15.1,12.5,15.2z"/>
</svg>
