<?xml version="1.0" encoding="utf-8"?>
<!-- Generator: Adobe Illustrator 23.0.6, SVG Export Plug-In . SVG Version: 6.00 Build 0)  -->
<svg version="1.1" id="Calque_1" xmlns="http://www.w3.org/2000/svg" xmlns:xlink="http://www.w3.org/1999/xlink" x="0px" y="0px"
	 viewBox="0 0 30 30" style="enable-background:new 0 0 30 30;" xml:space="preserve">
<style type="text/css">
	.st0{fill:#2885F0;}
</style>
<path class="st0" d="M0,15C0,6.6,6.6,0,15,0c8.3,0,15,6.7,15,15c0,8.3-6.7,15-15,15C6.7,30,0,23.3,0,15z M16.5,23.1
	c0-1.3,0-2.5,0-3.6c0-1.1,0-2.2,0.1-3.4c0.1-1.2,0.9-1.9,2-1.9c1.1,0,1.9,0.5,2,1.8c0.2,1.5,0.1,3,0.2,4.5c0,0.9,0,1.7,0,2.6
	c1.3,0,2.4,0,3.4,0c0-2.9,0.1-5.7,0-8.5c-0.1-2.1-1.5-3.2-3.5-3.3c-1.5-0.1-3,0.1-4.2,1.4c0-0.5-0.1-0.9-0.1-1.4c-1.1,0-2.2,0-3.2,0
	c0,3.9,0,7.8,0,11.8C14.2,23.1,15.3,23.1,16.5,23.1z M6.5,11.3c0,4,0,7.9,0,11.8c1.4,0,2.7,0,4.1,0c0-4,0-7.8,0-11.8
	C9.2,11.3,7.9,11.3,6.5,11.3z M8.5,9.5c1.2,0,2.1-0.9,2.1-2c0-1.2-1-2.2-2.1-2.2c-1.1,0-2.1,1-2.1,2.1C6.4,8.5,7.4,9.4,8.5,9.5z"/>
</svg>
