<?xml version="1.0" encoding="utf-8"?>
<!-- Generator: Adobe Illustrator 23.0.6, SVG Export Plug-In . SVG Version: 6.00 Build 0)  -->
<svg version="1.1" id="Calque_1" xmlns="http://www.w3.org/2000/svg" xmlns:xlink="http://www.w3.org/1999/xlink" x="0px" y="0px"
	 viewBox="0 0 30 30" style="enable-background:new 0 0 30 30;" xml:space="preserve">
<style type="text/css">
	.st0{fill:#00B6F1;}
</style>
<path class="st0" d="M30.1,13.7c0,0.9,0,1.9,0,2.8c-0.1,0.2-0.2,0.4-0.2,0.7c-0.1,1.2-0.5,2.3-0.9,3.5c-0.6,1.7-1.6,3.2-2.8,4.5
	c-2.5,2.7-5.4,4.3-9.1,4.8c-0.2,0-0.4,0.1-0.6,0.2c-0.9,0-1.9,0-2.8,0C13.5,30.1,13.3,30,13,30c-1.1,0-2.2-0.4-3.2-0.8
	c-1.5-0.6-2.9-1.4-4.2-2.4c-3-2.5-4.8-5.6-5.3-9.5c0-0.2-0.1-0.4-0.2-0.6c0-0.9,0-1.9,0-2.8c0.1-0.3,0.2-0.6,0.2-0.9
	c0.1-0.5,0.1-1.1,0.3-1.6C1,10.1,1.4,9,2,7.9c1-2,2.5-3.7,4.3-5c2-1.4,4.3-2.4,6.8-2.7c0.2,0,0.4-0.1,0.6-0.2c0.9,0,1.9,0,2.8,0
	c0.2,0.1,0.5,0.2,0.7,0.2c1,0.3,2.1,0.4,3.1,0.8c1.5,0.6,2.9,1.4,4.2,2.4c3,2.5,4.8,5.6,5.3,9.6C29.9,13.3,30,13.5,30.1,13.7z
	 M11.4,19c-1.3,1.1-2.8,1.4-4.6,1.4c0.2,0.2,0.3,0.3,0.4,0.3c1.3,0.7,2.7,1.1,4.1,1.2c1.7,0.1,3.4-0.1,4.9-0.9
	c3.6-1.8,5.2-4.9,5.6-8.8c0-0.4,0.1-0.7,0.4-0.9c0.4-0.3,0.8-0.8,1.1-1.2L23.2,10c-0.5,0.1-1,0.3-1.5,0.4c0.5-0.5,1-1,1.1-1.8
	c-0.5,0.2-1,0.4-1.4,0.6c-0.3,0.1-0.7,0.2-1-0.1c-0.7-0.6-1.5-0.8-2.5-0.8c-1.7,0-3.3,1.7-3.3,3.4c0,0.8,0,0.9-0.8,0.7
	s-1.6-0.3-2.3-0.6c-1.4-0.6-2.6-1.4-3.6-2.6c-0.2-0.3-0.4-0.3-0.5,0c-0.4,1-0.4,2,0.1,3C8,12.6,8.3,13,8.7,13.5
	c-0.5-0.1-0.9-0.2-1.3-0.4c0.1,1.6,0.9,2.6,2.3,3.4c-0.3,0-0.6,0.1-1,0.1C9.1,18,10.1,18.7,11.4,19z"/>
</svg>
